<svg xmlns="http://www.w3.org/2000/svg" xmlns:xlink="http://www.w3.org/1999/xlink" width="48" height="48" viewBox="0 0 48 48"><rect width="100%" height="100%" fill="#DDDDDD"/><path d="M10.14 24.80L12.12 24.80L12.12 22.67Q12.12 22.37 12.16 22.01L12.16 22.01L10.14 24.80ZM13.09 24.80L13.91 24.80L13.91 25.44Q13.91 25.53 13.85 25.60Q13.79 25.66 13.69 25.66L13.69 25.66L13.09 25.66L13.09 27.25L12.12 27.25L12.12 25.66L9.38 25.66Q9.27 25.66 9.18 25.60Q9.10 25.53 9.07 25.42L9.07 25.42L8.96 24.86L12.04 20.74L13.09 20.74L13.09 24.80ZM16.75 26.46L16.75 26.46Q17.02 26.46 17.23 26.38Q17.44 26.30 17.58 26.16Q17.72 26.02 17.79 25.83Q17.87 25.63 17.87 25.41L17.87 25.41Q17.87 24.87 17.57 24.60Q17.27 24.32 16.75 24.32L16.75 24.32Q16.23 24.32 15.93 24.60Q15.63 24.87 15.63 25.41L15.63 25.41Q15.63 25.63 15.71 25.83Q15.78 26.02 15.92 26.16Q16.06 26.30 16.27 26.38Q16.48 26.46 16.75 26.46ZM16.75 21.51L16.75 21.51Q16.50 21.51 16.32 21.59Q16.14 21.66 16.02 21.79Q15.90 21.92 15.85 22.09Q15.79 22.25 15.79 22.44L15.79 22.44Q15.79 22.63 15.84 22.81Q15.89 23.00 16.00 23.14Q16.11 23.28 16.30 23.37Q16.48 23.45 16.75 23.45L16.75 23.45Q17.02 23.45 17.20 23.37Q17.39 23.28 17.50 23.14Q17.61 23.00 17.66 22.81Q17.71 22.63 17.71 22.44L17.71 22.44Q17.71 22.25 17.65 22.09Q17.59 21.92 17.48 21.79Q17.36 21.66 17.18 21.59Q17.00 21.51 16.75 21.51ZM17.85 23.86L17.85 23.86Q18.44 24.05 18.73 24.45Q19.01 24.85 19.01 25.43L19.01 25.43Q19.01 25.86 18.85 26.21Q18.68 26.56 18.38 26.81Q18.09 27.06 17.67 27.19Q17.25 27.33 16.75 27.33L16.75 27.33Q16.25 27.33 15.83 27.19Q15.41 27.06 15.12 26.81Q14.82 26.56 14.66 26.21Q14.49 25.86 14.49 25.43L14.49 25.43Q14.49 24.85 14.77 24.45Q15.06 24.05 15.65 23.86L15.65 23.86Q15.18 23.66 14.94 23.30Q14.71 22.93 14.71 22.42L14.71 22.42Q14.71 22.05 14.86 21.73Q15.01 21.41 15.28 21.18Q15.55 20.94 15.92 20.81Q16.30 20.67 16.75 20.67L16.75 20.67Q17.20 20.67 17.58 20.81Q17.95 20.94 18.22 21.18Q18.49 21.41 18.64 21.73Q18.79 22.05 18.79 22.42L18.79 22.42Q18.79 22.93 18.56 23.30Q18.32 23.66 17.85 23.86ZM26.28 25.76L25.69 26.34L24.17 24.82L22.63 26.35L22.04 25.77L23.58 24.23L22.11 22.76L22.70 22.18L24.16 23.64L25.62 22.19L26.21 22.77L24.75 24.23L26.28 25.76ZM30.18 24.80L32.16 24.80L32.16 22.67Q32.16 22.37 32.20 22.01L32.20 22.01L30.18 24.80ZM33.13 24.80L33.95 24.80L33.95 25.44Q33.95 25.53 33.89 25.60Q33.83 25.66 33.72 25.66L33.72 25.66L33.13 25.66L33.13 27.25L32.16 27.25L32.16 25.66L29.41 25.66Q29.30 25.66 29.22 25.60Q29.13 25.53 29.11 25.42L29.11 25.42L28.99 24.86L32.07 20.74L33.13 20.74L33.13 24.80ZM36.78 26.46L36.78 26.46Q37.06 26.46 37.27 26.38Q37.47 26.30 37.61 26.16Q37.76 26.02 37.83 25.83Q37.90 25.63 37.90 25.41L37.90 25.41Q37.90 24.87 37.60 24.60Q37.31 24.32 36.78 24.32L36.78 24.32Q36.26 24.32 35.97 24.60Q35.67 24.87 35.67 25.41L35.67 25.41Q35.67 25.63 35.74 25.83Q35.81 26.02 35.95 26.16Q36.10 26.30 36.30 26.38Q36.51 26.46 36.78 26.46ZM36.78 21.51L36.78 21.51Q36.54 21.51 36.36 21.59Q36.18 21.66 36.06 21.79Q35.94 21.92 35.88 22.09Q35.83 22.25 35.83 22.44L35.83 22.44Q35.83 22.63 35.87 22.81Q35.92 23.00 36.03 23.14Q36.15 23.28 36.33 23.37Q36.51 23.45 36.78 23.45L36.78 23.45Q37.05 23.45 37.24 23.37Q37.42 23.28 37.54 23.14Q37.65 23.00 37.70 22.81Q37.74 22.63 37.74 22.44L37.74 22.44Q37.74 22.25 37.68 22.09Q37.63 21.92 37.51 21.79Q37.39 21.66 37.21 21.59Q37.03 21.51 36.78 21.51ZM37.88 23.86L37.88 23.86Q38.48 24.05 38.76 24.45Q39.04 24.85 39.04 25.43L39.04 25.43Q39.04 25.86 38.88 26.21Q38.72 26.56 38.42 26.81Q38.12 27.06 37.70 27.19Q37.29 27.33 36.78 27.33L36.78 27.33Q36.28 27.33 35.86 27.19Q35.45 27.06 35.15 26.81Q34.85 26.56 34.69 26.21Q34.53 25.86 34.53 25.43L34.53 25.43Q34.53 24.85 34.81 24.45Q35.09 24.05 35.69 23.86L35.69 23.86Q35.21 23.66 34.98 23.30Q34.74 22.93 34.74 22.42L34.74 22.42Q34.74 22.05 34.89 21.73Q35.04 21.41 35.31 21.18Q35.58 20.94 35.96 20.81Q36.33 20.67 36.78 20.67L36.78 20.67Q37.23 20.67 37.61 20.81Q37.99 20.94 38.26 21.18Q38.53 21.41 38.68 21.73Q38.83 22.05 38.83 22.42L38.83 22.42Q38.83 22.93 38.59 23.30Q38.36 23.66 37.88 23.86Z" fill="#999999"/></svg>