<svg width="233" height="62" viewBox="0 0 233 62" fill="none" xmlns="http://www.w3.org/2000/svg">
<path d="M25.28 60.12C20.6934 60.12 16.2667 59.56 12 58.44C7.7867 57.2667 4.34671 55.7733 1.68004 53.96L6.88004 42.28C9.3867 43.88 12.2667 45.2133 15.52 46.28C18.8267 47.2933 22.1067 47.8 25.36 47.8C27.5467 47.8 29.3067 47.6133 30.64 47.24C31.9734 46.8133 32.9334 46.28 33.52 45.64C34.16 44.9467 34.48 44.1467 34.48 43.24C34.48 41.96 33.8934 40.9467 32.72 40.2C31.5467 39.4533 30.0267 38.84 28.16 38.36C26.2934 37.88 24.2134 37.4 21.92 36.92C19.68 36.44 17.4134 35.8267 15.12 35.08C12.88 34.3333 10.8267 33.3733 8.96004 32.2C7.09337 30.9733 5.57337 29.4 4.40004 27.48C3.2267 25.5067 2.64004 23.0267 2.64004 20.04C2.64004 16.68 3.54671 13.64 5.36004 10.92C7.22671 8.20001 10 6.01334 13.68 4.36C17.36 2.70667 21.9467 1.88 27.44 1.88C31.12 1.88 34.72 2.30667 38.24 3.16001C41.8134 3.96001 44.9867 5.16 47.76 6.76L42.88 18.52C40.2134 17.08 37.5734 16.0133 34.96 15.32C32.3467 14.5733 29.8134 14.2 27.36 14.2C25.1734 14.2 23.4134 14.44 22.08 14.92C20.7467 15.3467 19.7867 15.9333 19.2 16.68C18.6134 17.4267 18.32 18.28 18.32 19.24C18.32 20.4667 18.88 21.4533 20 22.2C21.1734 22.8933 22.6934 23.48 24.56 23.96C26.48 24.3867 28.56 24.84 30.8 25.32C33.0934 25.8 35.36 26.4133 37.6 27.16C39.8934 27.8533 41.9734 28.8133 43.84 30.04C45.7067 31.2133 47.2 32.7867 48.32 34.76C49.4934 36.68 50.08 39.1067 50.08 42.04C50.08 45.2933 49.1467 48.3067 47.28 51.08C45.4667 53.8 42.72 55.9867 39.04 57.64C35.4134 59.2933 30.8267 60.12 25.28 60.12Z" fill="#52A675"/>
<path d="M85.3969 60.12C80.9702 60.12 76.8636 59.4267 73.0769 58.04C69.2902 56.6 66.0102 54.5733 63.2369 51.96C60.5169 49.3467 58.3836 46.28 56.8369 42.76C55.2902 39.1867 54.5169 35.2667 54.5169 31C54.5169 26.7333 55.2902 22.84 56.8369 19.32C58.3836 15.7467 60.5436 12.6533 63.3169 10.04C66.0902 7.42667 69.3702 5.42667 73.1569 4.04C76.9969 2.6 81.1836 1.88 85.7169 1.88C90.9969 1.88 95.7169 2.76 99.8769 4.52C104.037 6.28001 107.477 8.81334 110.197 12.12L100.117 21.24C98.1969 19.16 96.1169 17.6133 93.8769 16.6C91.6902 15.5333 89.2369 15 86.5169 15C84.1169 15 81.9303 15.3733 79.9569 16.12C77.9836 16.8667 76.3036 17.96 74.9169 19.4C73.5302 20.7867 72.4369 22.4667 71.6369 24.44C70.8903 26.36 70.5169 28.5467 70.5169 31C70.5169 33.3467 70.8903 35.5067 71.6369 37.48C72.4369 39.4533 73.5302 41.16 74.9169 42.6C76.3036 43.9867 77.9569 45.08 79.8769 45.88C81.8502 46.6267 84.0102 47 86.3569 47C88.7036 47 90.9969 46.6267 93.2369 45.88C95.4769 45.08 97.7436 43.7467 100.037 41.88L108.917 53C105.717 55.2933 102.01 57.0533 97.7969 58.28C93.5836 59.5067 89.4502 60.12 85.3969 60.12ZM94.9169 50.92V29.8H108.917V53L94.9169 50.92Z" fill="#52A675"/>
<path d="M136.159 59L112.239 3H129.359L149.519 51.48H139.439L160.079 3H175.759L151.759 59H136.159Z" fill="#52A675"/>
<path d="M206.334 60.12C201.908 60.12 197.801 59.4267 194.014 58.04C190.228 56.6 186.948 54.5733 184.174 51.96C181.454 49.3467 179.321 46.28 177.774 42.76C176.228 39.1867 175.454 35.2667 175.454 31C175.454 26.7333 176.228 22.84 177.774 19.32C179.321 15.7467 181.481 12.6533 184.254 10.04C187.028 7.42667 190.308 5.42667 194.094 4.04C197.934 2.6 202.121 1.88 206.654 1.88C211.934 1.88 216.654 2.76 220.814 4.52C224.974 6.28001 228.414 8.81334 231.134 12.12L221.054 21.24C219.134 19.16 217.054 17.6133 214.814 16.6C212.628 15.5333 210.174 15 207.454 15C205.054 15 202.868 15.3733 200.894 16.12C198.921 16.8667 197.241 17.96 195.854 19.4C194.468 20.7867 193.374 22.4667 192.574 24.44C191.828 26.36 191.454 28.5467 191.454 31C191.454 33.3467 191.828 35.5067 192.574 37.48C193.374 39.4533 194.468 41.16 195.854 42.6C197.241 43.9867 198.894 45.08 200.814 45.88C202.788 46.6267 204.948 47 207.294 47C209.641 47 211.934 46.6267 214.174 45.88C216.414 45.08 218.681 43.7467 220.974 41.88L229.854 53C226.654 55.2933 222.948 57.0533 218.734 58.28C214.521 59.5067 210.388 60.12 206.334 60.12ZM215.854 50.92V29.8H229.854V53L215.854 50.92Z" fill="#52A675"/>
<path fill-rule="evenodd" clip-rule="evenodd" d="M11.7389 59.4053L11.7318 59.4034C7.44841 58.2105 3.89998 56.6789 1.11773 54.7869L0.426514 54.3169L6.43893 40.8121L7.41807 41.4371C9.84198 42.9843 12.6408 44.2829 15.8223 45.3267C19.0369 46.3109 22.2151 46.8 25.36 46.8C27.4913 46.8 29.1442 46.6176 30.3528 46.282C31.6012 45.8805 32.3669 45.4181 32.7829 44.9643L32.7852 44.9617C33.2624 44.4448 33.48 43.8842 33.48 43.24C33.48 42.3358 33.0979 41.6257 32.1832 41.0437C31.1255 40.3706 29.712 39.7916 27.911 39.3285C26.0617 38.853 23.9967 38.3763 21.7152 37.8988L21.7105 37.8978C19.435 37.4102 17.1349 36.7877 14.8105 36.0309L14.8038 36.0287C12.4933 35.2585 10.3668 34.2654 8.42786 33.0466L8.41931 33.0413L8.41086 33.0357C6.41994 31.7274 4.79644 30.0464 3.54675 28.0015L3.54044 27.9911C2.25144 25.8233 1.64004 23.1536 1.64004 20.04C1.64004 16.4884 2.60195 13.2544 4.52799 10.3653L4.53545 10.3541C6.52689 7.4523 9.46014 5.15961 13.2702 3.44784C17.1168 1.71968 21.8536 0.880005 27.44 0.880005C31.1952 0.880005 34.8715 1.31514 38.4671 2.1861C42.1218 3.0051 45.3895 4.23788 48.2598 5.89382L49.0201 6.33249L43.3792 19.9261L42.4049 19.3999C39.7993 17.9929 37.2324 16.9575 34.7036 16.2866L34.6944 16.2841L34.6853 16.2815C32.1518 15.5577 29.7111 15.2 27.36 15.2C25.2331 15.2 23.6011 15.4353 22.4188 15.8609L22.4019 15.867L22.3848 15.8724C21.1564 16.2655 20.4038 16.7665 19.9864 17.2978C19.5398 17.8662 19.32 18.5014 19.32 19.24C19.32 20.0884 19.6749 20.7738 20.5328 21.3532C21.5934 21.9758 23.0043 22.5263 24.7932 22.9874C26.7052 23.4123 28.7765 23.8637 31.0073 24.3417C33.3332 24.8286 35.6318 25.4504 37.9029 26.2069C40.2729 26.9247 42.4341 27.9207 44.3809 29.1988C46.3832 30.4594 47.9853 32.1492 49.1818 34.2525C50.4703 36.368 51.08 38.9841 51.08 42.04C51.08 45.4972 50.0846 48.7034 48.111 51.6364C46.1716 54.5446 43.2614 56.8394 39.4517 58.5514C35.6548 60.2816 30.9158 61.12 25.28 61.12C20.6111 61.12 16.0989 60.5498 11.7461 59.4072L11.7389 59.4053ZM39.04 57.64C42.72 55.9867 45.4667 53.8 47.28 51.08C49.1467 48.3067 50.08 45.2933 50.08 42.04C50.08 39.1067 49.4934 36.68 48.32 34.76C47.2 32.7867 45.7067 31.2133 43.84 30.04C41.9734 28.8133 39.8934 27.8533 37.6 27.16C35.36 26.4133 33.0934 25.8 30.8 25.32C28.56 24.84 26.48 24.3867 24.56 23.96C22.6934 23.48 21.1734 22.8933 20 22.2C18.88 21.4533 18.32 20.4667 18.32 19.24C18.32 18.28 18.6134 17.4267 19.2 16.68C19.7867 15.9333 20.7467 15.3467 22.08 14.92C23.4134 14.44 25.1734 14.2 27.36 14.2C29.8134 14.2 32.3467 14.5733 34.96 15.32C37.2826 15.9362 39.6263 16.8473 41.991 18.0533C42.287 18.2042 42.5834 18.3598 42.88 18.52L47.76 6.76C44.9867 5.16 41.8134 3.96001 38.24 3.16001C34.72 2.30667 31.12 1.88 27.44 1.88C21.9467 1.88 17.36 2.70667 13.68 4.36C10 6.01334 7.2267 8.20001 5.36004 10.92C3.5467 13.64 2.64004 16.68 2.64004 20.04C2.64004 23.0267 3.2267 25.5067 4.40004 27.48C5.57337 29.4 7.09337 30.9733 8.96004 32.2C10.8267 33.3733 12.88 34.3333 15.12 35.08C17.4134 35.8267 19.68 36.44 21.92 36.92C24.2134 37.4 26.2934 37.88 28.16 38.36C30.0267 38.84 31.5467 39.4533 32.72 40.2C33.8934 40.9467 34.48 41.96 34.48 43.24C34.48 44.1467 34.16 44.9467 33.52 45.64C32.9334 46.28 31.9734 46.8133 30.64 47.24C29.3067 47.6133 27.5467 47.8 25.36 47.8C22.1067 47.8 18.8267 47.2933 15.52 46.28C12.6322 45.3332 10.0386 44.1763 7.73906 42.8092C7.44801 42.6362 7.16166 42.4598 6.88004 42.28L1.68004 53.96C4.3467 55.7733 7.7867 57.2667 12 58.44C16.2667 59.56 20.6934 60.12 25.28 60.12C30.8267 60.12 35.4134 59.2933 39.04 57.64ZM72.7215 58.9747C68.82 57.4911 65.4258 55.3967 62.5511 52.6878L62.5441 52.6811C59.7279 49.9753 57.5197 46.7997 55.9214 43.1623L55.9192 43.1572C54.3132 39.4469 53.5169 35.3901 53.5169 31C53.5169 26.6113 54.3128 22.5799 55.9201 18.9206C57.5195 15.2262 59.7572 12.0204 62.6311 9.31221C65.5077 6.60154 68.9047 4.53271 72.8095 3.10229C76.772 1.6169 81.0777 0.880005 85.7169 0.880005C91.1085 0.880005 95.9642 1.77883 100.267 3.59904C104.567 5.41841 108.141 8.04645 110.969 11.4847L111.575 12.2215L100.054 22.6458L99.3821 21.9183C97.5393 19.9219 95.5656 18.4615 93.4647 17.5111L93.4515 17.5051L93.4385 17.4988C91.4038 16.5062 89.1031 16 86.5169 16C84.2214 16 82.1566 16.3569 80.3108 17.0553C78.4681 17.7525 76.9155 18.7662 75.6372 20.0936L75.6307 20.1004L75.624 20.1071C74.3414 21.3898 73.3201 22.952 72.5663 24.8092C71.874 26.5923 71.5169 28.6505 71.5169 31C71.5169 33.2348 71.8714 35.2698 72.568 37.1151C73.3216 38.9703 74.3437 40.5613 75.6307 41.8995C76.9145 43.1815 78.4491 44.1996 80.2462 44.9505C82.0904 45.646 84.1239 46 86.3569 46C88.5919 46 90.7751 45.6453 92.9106 44.9347C93.2446 44.8152 93.58 44.6827 93.9169 44.5373V28.8H109.917V52.6497L110.356 53.1992L109.917 53.5136V54.1596L109.167 54.0481C105.942 56.2992 102.242 58.0274 98.0764 59.2401C93.7798 60.4911 89.5523 61.12 85.3969 61.12C80.8644 61.12 76.6401 60.4098 72.733 58.979L72.7215 58.9747ZM107.7 53.8303C107.832 53.7447 107.963 53.6583 108.093 53.5711C108.371 53.3845 108.646 53.1942 108.917 53V29.8H94.9169V45.1824C94.583 45.3403 94.2497 45.4866 93.9169 45.6211C93.69 45.7128 93.4633 45.7991 93.2369 45.88C90.9969 46.6267 88.7036 47 86.3569 47C84.0102 47 81.8503 46.6267 79.8769 45.88C77.9569 45.08 76.3036 43.9867 74.9169 42.6C73.5303 41.16 72.4369 39.4533 71.6369 37.48C70.8903 35.5067 70.5169 33.3467 70.5169 31C70.5169 28.5467 70.8903 26.36 71.6369 24.44C72.4369 22.4667 73.5303 20.7867 74.9169 19.4C76.3036 17.96 77.9836 16.8667 79.9569 16.12C81.9303 15.3733 84.1169 15 86.5169 15C89.2369 15 91.6902 15.5333 93.8769 16.6C96.1169 17.6133 98.1969 19.16 100.117 21.24L110.197 12.12C107.477 8.81334 104.037 6.28001 99.8769 4.52C95.7169 2.76 90.9969 1.88 85.7169 1.88C81.1836 1.88 76.9969 2.6 73.1569 4.04C69.3702 5.42667 66.0902 7.42667 63.3169 10.04C60.5436 12.6533 58.3836 15.7467 56.8369 19.32C55.2902 22.84 54.5169 26.7333 54.5169 31C54.5169 35.2667 55.2902 39.1867 56.8369 42.76C58.3836 46.28 60.5169 49.3467 63.2369 51.96C66.0102 54.5733 69.2902 56.6 73.0769 58.04C76.8636 59.4267 80.9702 60.12 85.3969 60.12C89.4502 60.12 93.5836 59.5067 97.7969 58.28C101.487 57.2058 104.788 55.7225 107.7 53.8303ZM135.499 60L110.725 2H130.027L144.55 36.9243L159.418 2H177.276L152.419 60H135.499ZM160.079 3H175.759L151.759 59H136.159L112.239 3H129.359L144.539 39.5026L160.079 3ZM193.671 58.979L193.659 58.9748C189.758 57.4911 186.363 55.3967 183.489 52.6878L183.482 52.6811C180.665 49.9753 178.457 46.7997 176.859 43.1623L176.857 43.1572C175.251 39.4469 174.454 35.3901 174.454 31C174.454 26.6108 175.25 22.579 176.858 18.9194C178.458 15.2255 180.695 12.0201 183.569 9.31221C186.445 6.60147 189.842 4.53259 193.747 3.10217C197.71 1.61687 202.015 0.880005 206.654 0.880005C212.046 0.880005 216.902 1.77883 221.204 3.59904C225.504 5.41841 229.078 8.04645 231.907 11.4847L232.513 12.2215L220.991 22.6458L220.32 21.9183C218.477 19.9219 216.503 18.4615 214.402 17.5111L214.389 17.5051L214.376 17.4988C212.341 16.5062 210.041 16 207.454 16C205.159 16 203.094 16.3569 201.248 17.0553C199.406 17.7525 197.853 18.7662 196.575 20.0936L196.568 20.1004L196.562 20.1071C195.279 21.3898 194.258 22.952 193.504 24.8092C192.811 26.5923 192.454 28.6505 192.454 31C192.454 33.2348 192.809 35.2698 193.506 37.1151C194.259 38.9703 195.281 40.5613 196.568 41.8995C197.852 43.1815 199.387 44.1996 201.184 44.9505C203.028 45.646 205.061 46 207.294 46C209.529 46 211.713 45.6453 213.848 44.9347C214.182 44.8152 214.518 44.6827 214.854 44.5373V28.8H230.854V52.6497L231.293 53.1992L230.854 53.5136V54.1596L230.104 54.0481C226.88 56.2992 223.18 58.0274 219.014 59.2401C214.717 60.4911 210.49 61.12 206.334 61.12C201.802 61.12 197.578 60.4098 193.671 58.979ZM228.638 53.8303C228.77 53.7447 228.901 53.6583 229.031 53.5711C229.309 53.3845 229.583 53.1942 229.854 53V29.8H215.854V45.1824C215.52 45.3403 215.187 45.4866 214.854 45.6211C214.627 45.7128 214.401 45.7991 214.174 45.88C211.934 46.6267 209.641 47 207.294 47C204.948 47 202.788 46.6267 200.814 45.88C198.894 45.08 197.241 43.9867 195.854 42.6C194.468 41.16 193.374 39.4533 192.574 37.48C191.828 35.5067 191.454 33.3467 191.454 31C191.454 28.5467 191.828 26.36 192.574 24.44C193.374 22.4667 194.468 20.7867 195.854 19.4C197.241 17.96 198.921 16.8667 200.894 16.12C202.868 15.3733 205.054 15 207.454 15C210.174 15 212.628 15.5333 214.814 16.6C217.054 17.6133 219.134 19.16 221.054 21.24L231.134 12.12C231.134 12.12 231.134 12.12 231.134 12.12C228.414 8.81339 224.974 6.27999 220.814 4.52C216.654 2.76 211.934 1.88 206.654 1.88C202.121 1.88 197.934 2.6 194.094 4.04C190.308 5.42667 187.028 7.42667 184.254 10.04C181.481 12.6533 179.321 15.7467 177.774 19.32C176.228 22.84 175.454 26.7333 175.454 31C175.454 35.2667 176.228 39.1867 177.774 42.76C179.321 46.28 181.454 49.3467 184.174 51.96C186.948 54.5733 190.228 56.6 194.014 58.04C197.801 59.4267 201.908 60.12 206.334 60.12C210.388 60.12 214.521 59.5067 218.734 58.28C222.424 57.2058 225.725 55.7225 228.638 53.8303Z" fill="#52A675"/>
</svg>
